<svg aria-hidden="true" style="position: absolute; width: 0; height: 0; overflow: hidden;" version="1.1" xmlns="http://www.w3.org/2000/svg" xmlns:xlink="http://www.w3.org/1999/xlink">
<defs>
<symbol id="icon-Logo" viewBox="0 0 71 32">
<path d="M0 20.36v-18.891c-0.005-0.194 0.030-0.387 0.102-0.567s0.179-0.343 0.315-0.479c0.13-0.136 0.286-0.244 0.458-0.317s0.358-0.109 0.544-0.106h8.361c4.329 0 7.477 0.877 9.445 2.632s2.953 4.51 2.955 8.265c0 3.747-0.985 6.495-2.955 8.246s-5.119 2.626-9.445 2.626h-8.361c-0.185 0.003-0.369-0.031-0.541-0.1s-0.329-0.172-0.462-0.304c-0.137-0.127-0.245-0.283-0.317-0.456s-0.106-0.36-0.1-0.548zM5.641 17.461h3.977c2.683 0 4.507-0.496 5.475-1.488s1.451-2.687 1.451-5.086c0-2.403-0.484-4.098-1.451-5.086s-2.792-1.486-5.475-1.494h-3.977v13.153z"></path>
<path fill="#84c551" style="fill: var(--color2, #84c551)" d="M30.241 16.504v0.016h2.538c0.273 0 0.539 0 0.802-0.016h-3.341z"></path>
<path d="M48.843 2.867v-1.427c-0.006-0.191 0.026-0.381 0.096-0.558s0.173-0.339 0.307-0.474 0.292-0.241 0.467-0.311c0.175-0.070 0.362-0.103 0.55-0.097h18.982c0.188-0.007 0.375 0.026 0.551 0.096s0.334 0.176 0.467 0.311c0.133 0.135 0.237 0.296 0.307 0.474s0.101 0.368 0.095 0.559v1.427c0.006 0.189-0.027 0.378-0.096 0.554s-0.173 0.336-0.305 0.47c-0.135 0.133-0.294 0.236-0.469 0.305s-0.362 0.101-0.549 0.095h-6.672v16.068c0.004 0.185-0.031 0.369-0.102 0.54s-0.176 0.325-0.309 0.452c-0.13 0.131-0.286 0.235-0.456 0.304s-0.353 0.103-0.537 0.1h-2.82c-0.184 0.004-0.367-0.030-0.539-0.099s-0.327-0.173-0.458-0.304c-0.133-0.127-0.238-0.281-0.309-0.452s-0.105-0.355-0.102-0.54v-16.059h-6.672c-0.187 0.006-0.373-0.027-0.548-0.096s-0.333-0.173-0.468-0.305c-0.136-0.134-0.242-0.295-0.313-0.473s-0.104-0.369-0.098-0.561z"></path>
<path fill="#84c551" style="fill: var(--color2, #84c551)" d="M0.42 30.525v-4.081c-0.001-0.042 0.007-0.084 0.023-0.124s0.039-0.075 0.068-0.105c0.028-0.029 0.062-0.052 0.099-0.067s0.077-0.023 0.117-0.022h0.633c0.040-0.001 0.079 0.007 0.116 0.022s0.070 0.038 0.097 0.067c0.029 0.030 0.053 0.066 0.068 0.105s0.023 0.081 0.023 0.124v3.455h2.82c0.040-0.001 0.081 0.007 0.118 0.023s0.071 0.040 0.098 0.070c0.056 0.059 0.087 0.137 0.088 0.219v0.318c-0.001 0.081-0.032 0.158-0.088 0.216-0.028 0.029-0.062 0.052-0.099 0.067s-0.077 0.023-0.117 0.022h-3.751c-0.080 0.001-0.158-0.030-0.216-0.086-0.032-0.027-0.057-0.061-0.074-0.1s-0.025-0.081-0.023-0.123z"></path>
<path fill="#84c551" style="fill: var(--color2, #84c551)" d="M5.528 30.414c-0.322-0.386-0.499-0.875-0.499-1.381s0.177-0.995 0.499-1.381c0.398-0.311 0.886-0.48 1.388-0.48s0.991 0.169 1.388 0.48c0.173 0.176 0.306 0.387 0.392 0.619s0.122 0.481 0.106 0.728v0.188c0.001 0.054-0.019 0.107-0.056 0.146-0.019 0.019-0.041 0.034-0.066 0.044s-0.051 0.014-0.078 0.013h-2.435c0.002 0.217 0.084 0.426 0.229 0.585 0.179 0.139 0.402 0.205 0.627 0.184 0.106 0.013 0.213 0.002 0.315-0.032s0.194-0.090 0.271-0.165c0.046-0.061 0.106-0.111 0.173-0.145s0.142-0.053 0.218-0.055h0.483c0.027-0.001 0.053 0.004 0.078 0.013s0.047 0.025 0.066 0.044c0.019 0.019 0.033 0.042 0.043 0.067s0.014 0.052 0.014 0.079c0 0.636-0.589 0.954-1.767 0.954-0.51 0.022-1.009-0.159-1.388-0.505zM6.155 28.685h1.504c-0.022-0.515-0.27-0.772-0.749-0.772s-0.718 0.257-0.746 0.772h-0.009z"></path>
<path fill="#84c551" style="fill: var(--color2, #84c551)" d="M11.075 30.115l0.445-0.041h0.119c0.027-0.001 0.053 0.004 0.078 0.014s0.047 0.025 0.066 0.044c0.019 0.019 0.033 0.041 0.043 0.066s0.014 0.051 0.014 0.077v0.353c-0 0.024-0.005 0.048-0.015 0.070s-0.024 0.041-0.041 0.058c-0.039 0.039-0.090 0.064-0.144 0.070-0.285 0.050-0.573 0.072-0.862 0.067-0.923 0-1.386-0.492-1.388-1.475v-3.090c-0.001-0.054 0.019-0.107 0.056-0.146 0.019-0.018 0.041-0.033 0.065-0.042s0.050-0.013 0.076-0.012h0.724c0.026-0.001 0.052 0.003 0.076 0.012s0.046 0.024 0.065 0.042c0.037 0.039 0.057 0.092 0.056 0.146v1.097h0.899c0.052-0.001 0.103 0.018 0.141 0.054 0.019 0.019 0.033 0.042 0.043 0.067s0.014 0.052 0.013 0.079v0.388c0.001 0.027-0.003 0.054-0.013 0.079s-0.024 0.048-0.043 0.067c-0.019 0.018-0.041 0.033-0.065 0.042s-0.050 0.013-0.076 0.012h-0.899v1.202c-0.012 0.185 0.042 0.368 0.154 0.515 0.050 0.061 0.114 0.11 0.185 0.143s0.15 0.048 0.228 0.045z"></path>
<path fill="#84c551" style="fill: var(--color2, #84c551)" d="M13.083 26.126c0.276 0 0.417 0.102 0.417 0.318-0.003 0.069-0.019 0.137-0.047 0.2l-0.385 0.989c-0.043 0.105-0.112 0.197-0.201 0.267-0.089 0.072-0.2 0.111-0.313 0.108h-0.128c-0.135 0-0.219-0.029-0.257-0.086-0.034-0.053-0.052-0.115-0.053-0.178-0.003-0.059-0.003-0.119 0-0.178l0.191-1.055c0.024-0.109 0.088-0.204 0.179-0.267 0.090-0.069 0.2-0.107 0.313-0.108l0.285-0.010z"></path>
<path fill="#84c551" style="fill: var(--color2, #84c551)" d="M13.961 28.227c0-0.71 0.562-1.064 1.686-1.062 1.178 0 1.771 0.318 1.771 0.954 0 0.026-0.004 0.053-0.014 0.077s-0.024 0.047-0.043 0.065c-0.018 0.019-0.040 0.033-0.064 0.043s-0.050 0.015-0.076 0.014h-0.483c-0.076 0.001-0.151-0.017-0.219-0.051s-0.127-0.084-0.173-0.146c-0.084-0.078-0.183-0.135-0.292-0.17s-0.223-0.043-0.335-0.028c-0.418 0-0.627 0.106-0.627 0.318 0 0.099 0.085 0.178 0.251 0.245 0.203 0.077 0.413 0.134 0.627 0.172 0.242 0.050 0.482 0.113 0.718 0.188 0.235 0.069 0.45 0.195 0.627 0.366 0.082 0.083 0.147 0.182 0.19 0.292s0.064 0.227 0.060 0.344c0 0.706-0.593 1.058-1.78 1.058s-1.779-0.318-1.777-0.954c-0.001-0.027 0.004-0.054 0.014-0.079s0.024-0.048 0.043-0.067 0.041-0.034 0.066-0.044c0.025-0.010 0.051-0.015 0.078-0.014h0.483c0.076 0 0.151 0.018 0.219 0.053s0.127 0.085 0.173 0.147c0.084 0.077 0.184 0.134 0.292 0.168s0.222 0.044 0.335 0.029c0.492 0 0.74-0.105 0.74-0.318 0-0.099-0.085-0.181-0.251-0.245-0.204-0.076-0.413-0.136-0.627-0.178-0.244-0.051-0.483-0.114-0.721-0.188-0.229-0.070-0.438-0.195-0.608-0.366-0.088-0.079-0.158-0.175-0.207-0.283s-0.074-0.225-0.075-0.344z"></path>
<path fill="#84c551" style="fill: var(--color2, #84c551)" d="M20.689 30.102c-0.155-0.165-0.275-0.361-0.353-0.576s-0.111-0.442-0.099-0.67c-0.012-0.233 0.028-0.466 0.117-0.681s0.225-0.407 0.397-0.562c0.422-0.325 0.945-0.484 1.473-0.448 0.328 0.003 0.654 0.039 0.975 0.108 0.265 0.046 0.521 0.134 0.758 0.261v3.036c0.016 0.206-0.020 0.412-0.102 0.601s-0.21 0.354-0.371 0.48c-0.398 0.256-0.865 0.378-1.335 0.35-0.451 0.022-0.902-0.053-1.322-0.219-0.141-0.056-0.261-0.156-0.344-0.284s-0.125-0.28-0.119-0.434c-0.001-0.027 0.004-0.054 0.013-0.079s0.024-0.048 0.043-0.067c0.019-0.019 0.042-0.034 0.066-0.044s0.051-0.014 0.078-0.014h0.483c0.071-0.002 0.141 0.012 0.206 0.042s0.122 0.074 0.167 0.13c0.081 0.083 0.18 0.146 0.288 0.185s0.224 0.053 0.339 0.040c0.22 0.024 0.441-0.030 0.627-0.153 0.063-0.072 0.11-0.157 0.139-0.249s0.038-0.189 0.027-0.285v-0.153c-0.315 0.085-0.639 0.13-0.965 0.133-0.217 0.010-0.434-0.025-0.637-0.102s-0.39-0.195-0.547-0.346zM22.159 27.96c-0.511 0-0.768 0.296-0.768 0.896s0.251 0.9 0.749 0.9c0.236-0.004 0.471-0.037 0.699-0.099v-1.624c-0.222-0.056-0.451-0.080-0.68-0.073z"></path>
<path fill="#84c551" style="fill: var(--color2, #84c551)" d="M27.204 28.065l-0.498-0.019c-0.166 0.012-0.327 0.062-0.472 0.146s-0.268 0.201-0.362 0.34v2.095c0.001 0.026-0.004 0.053-0.014 0.077s-0.024 0.047-0.043 0.066c-0.019 0.018-0.041 0.033-0.065 0.042s-0.050 0.013-0.076 0.012h-0.724c-0.026 0.002-0.052-0.002-0.076-0.011s-0.046-0.024-0.065-0.043c-0.019-0.019-0.033-0.041-0.043-0.066s-0.014-0.051-0.014-0.077v-3.179c-0.001-0.027 0.004-0.054 0.013-0.079s0.024-0.048 0.043-0.067c0.018-0.019 0.040-0.034 0.065-0.043s0.050-0.015 0.076-0.014h0.724c0.026-0.001 0.052 0.004 0.076 0.014s0.046 0.025 0.065 0.044c0.019 0.019 0.033 0.042 0.043 0.067s0.014 0.052 0.013 0.079v0.207c0.192-0.148 0.403-0.269 0.627-0.359 0.258-0.086 0.528-0.126 0.799-0.118 0.053 0 0.105 0.021 0.144 0.057 0.018 0.019 0.033 0.041 0.042 0.066s0.014 0.051 0.014 0.077v0.499c0.001 0.027-0.003 0.053-0.013 0.078s-0.025 0.047-0.044 0.065c-0.019 0.019-0.042 0.034-0.066 0.044s-0.051 0.014-0.078 0.014l-0.094-0.013z"></path>
<path fill="#84c551" style="fill: var(--color2, #84c551)" d="M28.273 30.42c-0.326-0.388-0.504-0.881-0.504-1.391s0.179-1.003 0.504-1.391c0.422-0.308 0.929-0.474 1.449-0.474s1.027 0.166 1.449 0.474c0.326 0.388 0.504 0.881 0.504 1.391s-0.179 1.003-0.504 1.391c-0.424 0.305-0.93 0.468-1.449 0.468s-1.026-0.164-1.449-0.468zM29.091 28.176c-0.132 0.263-0.201 0.555-0.201 0.85s0.069 0.587 0.201 0.85c0.166 0.168 0.392 0.263 0.627 0.263s0.46-0.095 0.627-0.263c0.132-0.264 0.201-0.555 0.201-0.85s-0.069-0.587-0.201-0.85c-0.168-0.165-0.393-0.258-0.627-0.258s-0.459 0.093-0.627 0.258z"></path>
<path fill="#84c551" style="fill: var(--color2, #84c551)" d="M31.936 27.521c-0.016-0.046-0.026-0.094-0.031-0.143 0-0.095 0.056-0.143 0.163-0.146h0.602c0.096-0.001 0.191 0.025 0.273 0.076 0.077 0.050 0.134 0.125 0.163 0.213l0.53 1.767 0.523-1.767c0.018-0.085 0.065-0.161 0.132-0.214s0.152-0.080 0.237-0.076h0.57c0.086-0.005 0.171 0.021 0.239 0.074s0.115 0.13 0.131 0.215l0.523 1.767 0.53-1.767c0.029-0.089 0.088-0.164 0.166-0.213 0.082-0.052 0.176-0.078 0.273-0.076h0.599c0.107 0 0.16 0.051 0.163 0.146-0.001 0.049-0.011 0.097-0.028 0.143l-0.981 3.017c-0.028 0.087-0.084 0.161-0.16 0.21-0.075 0.049-0.162 0.076-0.251 0.076h-0.454c-0.091-0-0.179-0.028-0.254-0.079-0.075-0.048-0.13-0.121-0.157-0.207l-0.627-1.955-0.627 1.955c-0.027 0.086-0.084 0.159-0.16 0.207-0.074 0.052-0.161 0.080-0.251 0.079h-0.448c-0.088-0-0.174-0.027-0.248-0.076-0.076-0.049-0.134-0.123-0.163-0.21l-0.978-3.017z"></path>
<path fill="#84c551" style="fill: var(--color2, #84c551)" d="M42.187 30.115l0.445-0.041h0.119c0.027-0.001 0.053 0.004 0.078 0.014s0.047 0.025 0.066 0.044c0.019 0.019 0.033 0.041 0.043 0.066s0.014 0.051 0.014 0.077v0.353c-0 0.024-0.005 0.048-0.015 0.070s-0.024 0.041-0.041 0.058c-0.039 0.039-0.090 0.064-0.144 0.070-0.285 0.050-0.573 0.072-0.862 0.067-0.923 0-1.386-0.492-1.388-1.475v-3.090c-0.001-0.054 0.019-0.107 0.056-0.146 0.019-0.018 0.041-0.033 0.065-0.042s0.050-0.013 0.076-0.012h0.724c0.026-0.001 0.052 0.003 0.076 0.012s0.046 0.024 0.065 0.042c0.037 0.039 0.057 0.092 0.056 0.146v1.097h0.903c0.051-0 0.1 0.019 0.138 0.054 0.019 0.019 0.034 0.042 0.045 0.067s0.015 0.052 0.015 0.079v0.388c0 0.027-0.005 0.054-0.015 0.079s-0.025 0.048-0.045 0.067c-0.018 0.018-0.040 0.032-0.064 0.041s-0.049 0.014-0.074 0.013h-0.903v1.202c-0.012 0.185 0.042 0.368 0.154 0.515 0.050 0.061 0.114 0.11 0.185 0.143s0.15 0.048 0.228 0.045z"></path>
<path fill="#84c551" style="fill: var(--color2, #84c551)" d="M43.754 30.42c-0.326-0.388-0.505-0.881-0.505-1.391s0.179-1.003 0.505-1.391c0.422-0.308 0.929-0.474 1.449-0.474s1.027 0.166 1.449 0.474c0.326 0.388 0.504 0.881 0.504 1.391s-0.179 1.003-0.504 1.391c-0.424 0.305-0.93 0.468-1.449 0.468s-1.026-0.164-1.449-0.468zM44.572 28.176c-0.132 0.263-0.201 0.555-0.201 0.85s0.069 0.587 0.201 0.85c0.075 0.093 0.171 0.167 0.28 0.214s0.228 0.066 0.346 0.056c0.118 0.009 0.237-0.011 0.346-0.058s0.205-0.12 0.281-0.213c0.134-0.263 0.204-0.554 0.204-0.85s-0.070-0.587-0.204-0.85c-0.076-0.091-0.173-0.163-0.282-0.208s-0.227-0.065-0.345-0.055c-0.118-0.010-0.236 0.008-0.345 0.054s-0.206 0.118-0.281 0.21z"></path>
<path fill="#84c551" style="fill: var(--color2, #84c551)" d="M48 30.102c-0.155-0.165-0.275-0.361-0.353-0.576s-0.111-0.442-0.099-0.67c-0.012-0.233 0.028-0.466 0.117-0.681s0.225-0.407 0.397-0.562c0.422-0.325 0.947-0.485 1.476-0.448 0.327 0.003 0.652 0.039 0.971 0.108 0.266 0.046 0.523 0.134 0.762 0.261v3.036c0.015 0.206-0.020 0.413-0.104 0.601s-0.211 0.353-0.373 0.479c-0.397 0.255-0.863 0.377-1.332 0.35-0.451 0.022-0.902-0.053-1.322-0.219-0.141-0.056-0.262-0.155-0.345-0.284s-0.125-0.281-0.119-0.434c-0.001-0.027 0.004-0.054 0.013-0.079s0.024-0.048 0.043-0.067 0.041-0.034 0.066-0.044c0.025-0.010 0.051-0.015 0.078-0.014h0.489c0.071-0.003 0.142 0.011 0.206 0.041s0.122 0.074 0.166 0.131c0.081 0.082 0.18 0.146 0.288 0.185s0.224 0.053 0.338 0.041c0.22 0.026 0.442-0.028 0.627-0.153 0.064-0.072 0.111-0.157 0.141-0.249s0.039-0.189 0.029-0.285v-0.153c-0.316 0.085-0.641 0.13-0.968 0.133-0.219 0.011-0.437-0.023-0.642-0.1s-0.393-0.195-0.552-0.348zM49.47 27.96c-0.511 0-0.765 0.296-0.765 0.896s0.248 0.9 0.746 0.9c0.237-0.004 0.473-0.037 0.702-0.099v-1.624c-0.223-0.056-0.453-0.080-0.683-0.073z"></path>
<path fill="#84c551" style="fill: var(--color2, #84c551)" d="M52.362 30.414c-0.322-0.386-0.499-0.875-0.499-1.381s0.177-0.995 0.499-1.381c0.398-0.311 0.886-0.48 1.388-0.48s0.991 0.169 1.388 0.48c0.173 0.176 0.306 0.387 0.392 0.619s0.122 0.481 0.106 0.728v0.188c0.001 0.054-0.019 0.107-0.056 0.146-0.019 0.019-0.041 0.034-0.066 0.044s-0.051 0.014-0.078 0.013h-2.435c0.002 0.217 0.084 0.426 0.229 0.585 0.179 0.139 0.402 0.205 0.627 0.184 0.106 0.013 0.213 0.002 0.315-0.032s0.194-0.090 0.271-0.165c0.046-0.061 0.106-0.111 0.173-0.145s0.142-0.053 0.218-0.055h0.483c0.027-0.001 0.053 0.004 0.078 0.014s0.047 0.025 0.066 0.044 0.034 0.042 0.043 0.067c0.010 0.025 0.014 0.052 0.013 0.079 0 0.636-0.589 0.954-1.767 0.954-0.51 0.022-1.009-0.159-1.388-0.505zM52.989 28.685h1.504c-0.022-0.515-0.273-0.772-0.749-0.772s-0.718 0.257-0.746 0.772h-0.009z"></path>
<path fill="#84c551" style="fill: var(--color2, #84c551)" d="M57.922 30.115l0.442-0.041h0.122c0.054-0.001 0.105 0.020 0.144 0.057 0.019 0.019 0.033 0.041 0.043 0.066s0.014 0.051 0.014 0.077v0.353c-0 0.024-0.005 0.048-0.015 0.070s-0.024 0.041-0.041 0.058c-0.039 0.039-0.090 0.063-0.144 0.070-0.285 0.050-0.573 0.072-0.862 0.067-0.926 0-1.388-0.492-1.388-1.475v-3.090c-0.001-0.054 0.019-0.107 0.056-0.146 0.019-0.018 0.041-0.033 0.065-0.042s0.050-0.013 0.076-0.012h0.724c0.026-0.001 0.052 0.003 0.076 0.012s0.046 0.024 0.065 0.042c0.037 0.039 0.057 0.092 0.056 0.146v1.097h0.899c0.052-0.001 0.103 0.018 0.141 0.054 0.019 0.019 0.034 0.042 0.043 0.067s0.014 0.052 0.013 0.079v0.388c0.001 0.027-0.004 0.054-0.013 0.079s-0.024 0.048-0.043 0.067c-0.019 0.018-0.041 0.033-0.065 0.042s-0.050 0.013-0.076 0.012h-0.899v1.202c-0.012 0.185 0.042 0.368 0.154 0.515 0.050 0.061 0.114 0.11 0.185 0.143s0.15 0.048 0.228 0.045z"></path>
<path fill="#84c551" style="fill: var(--color2, #84c551)" d="M59.216 30.627v-4.301c-0.001-0.054 0.019-0.107 0.056-0.146 0.019-0.018 0.041-0.033 0.065-0.042s0.050-0.013 0.076-0.012h0.724c0.026-0.001 0.052 0.003 0.076 0.012s0.046 0.024 0.065 0.042c0.037 0.039 0.057 0.092 0.056 0.146v1.316c0.324-0.3 0.746-0.47 1.185-0.477 0.187-0.007 0.374 0.023 0.55 0.091s0.336 0.169 0.472 0.3c0.142 0.161 0.25 0.349 0.318 0.553s0.094 0.421 0.077 0.636v1.882c0.001 0.026-0.004 0.052-0.014 0.076s-0.024 0.046-0.043 0.064c-0.019 0.019-0.041 0.034-0.066 0.044s-0.051 0.014-0.078 0.013h-0.721c-0.026 0.001-0.052-0.004-0.076-0.014s-0.046-0.025-0.065-0.043c-0.018-0.018-0.033-0.040-0.043-0.064s-0.014-0.050-0.014-0.076v-1.882c0-0.524-0.207-0.785-0.627-0.785-0.168 0.017-0.33 0.067-0.479 0.148s-0.28 0.19-0.386 0.323v2.196c0.001 0.026-0.004 0.052-0.014 0.076s-0.024 0.046-0.043 0.064c-0.018 0.019-0.040 0.034-0.065 0.043s-0.050 0.015-0.076 0.014h-0.724c-0.026 0.001-0.052-0.004-0.076-0.014s-0.046-0.025-0.065-0.043c-0.017-0.019-0.030-0.041-0.038-0.065s-0.011-0.050-0.009-0.075z"></path>
<path fill="#84c551" style="fill: var(--color2, #84c551)" d="M64.036 30.414c-0.322-0.386-0.498-0.876-0.498-1.381s0.177-0.995 0.498-1.381c0.381-0.342 0.88-0.517 1.388-0.486 0.505-0.031 1.002 0.139 1.385 0.474 0.173 0.176 0.307 0.387 0.393 0.619s0.122 0.481 0.106 0.728v0.188c0.001 0.054-0.019 0.107-0.057 0.146-0.019 0.019-0.041 0.034-0.066 0.044s-0.051 0.014-0.078 0.013h-2.444c0.001 0.217 0.081 0.425 0.226 0.585 0.179 0.139 0.402 0.204 0.627 0.184 0.106 0.012 0.214 0.001 0.316-0.033s0.195-0.090 0.273-0.164c0.046-0.061 0.105-0.111 0.173-0.146s0.143-0.053 0.219-0.054h0.48c0.026-0.001 0.053 0.004 0.077 0.013s0.047 0.025 0.067 0.044c0.019 0.019 0.033 0.042 0.043 0.067s0.015 0.052 0.013 0.079c0 0.636-0.589 0.954-1.767 0.954-0.503 0.022-0.995-0.155-1.373-0.493zM64.662 28.685h1.501c-0.022-0.515-0.27-0.772-0.749-0.772s-0.724 0.257-0.752 0.772z"></path>
<path fill="#84c551" style="fill: var(--color2, #84c551)" d="M70.35 28.065l-0.498-0.019c-0.166 0.012-0.327 0.062-0.471 0.146s-0.268 0.2-0.362 0.34v2.095c0.001 0.026-0.004 0.053-0.014 0.077s-0.024 0.047-0.043 0.066c-0.019 0.018-0.041 0.033-0.065 0.042s-0.051 0.013-0.076 0.012h-0.711c-0.026 0.002-0.053-0.002-0.077-0.011s-0.047-0.024-0.065-0.043c-0.019-0.019-0.033-0.041-0.043-0.066s-0.015-0.051-0.014-0.077v-3.179c-0.001-0.027 0.004-0.054 0.013-0.079s0.025-0.048 0.043-0.067c0.019-0.019 0.041-0.034 0.065-0.043s0.050-0.015 0.077-0.014h0.723c0.027-0.001 0.053 0.003 0.077 0.013s0.047 0.025 0.065 0.044c0.019 0.019 0.033 0.042 0.043 0.067s0.014 0.052 0.013 0.079v0.207c0.192-0.148 0.403-0.269 0.627-0.359 0.257-0.086 0.528-0.126 0.799-0.118 0.053 0 0.105 0.020 0.144 0.057 0.019 0.019 0.033 0.041 0.043 0.066s0.015 0.051 0.014 0.077v0.499c0.001 0.027-0.003 0.053-0.013 0.078s-0.025 0.047-0.044 0.065c-0.019 0.019-0.041 0.034-0.066 0.044s-0.051 0.014-0.078 0.014l-0.107-0.013z"></path>
<path fill="#21603f" style="fill: var(--color3, #21603f)" d="M24.484 16.504v0.019l-0.997 3.837c-0.033 0.149-0.050 0.302-0.053 0.455 0.015 0.221 0.102 0.432 0.248 0.598 0.102 0.121 0.231 0.216 0.377 0.275s0.303 0.083 0.46 0.068h2.949c0.403-0.005 0.792-0.147 1.106-0.404 0.337-0.249 0.575-0.612 0.671-1.024l0.997-3.814v-0.016l-5.757 0.006z"></path>
<path fill="#84c551" style="fill: var(--color2, #84c551)" d="M45.446 0.016c-0.072-0.006-0.144-0.006-0.216 0h-8.856c-3.134 0.114-5.489 0.896-7.067 2.346-0.075 0.067-0.147 0.134-0.216 0.207-0.907 0.923-1.546 2.081-1.849 3.347l-2.751 10.585h9.088c3.119-0.114 5.467-0.89 7.045-2.327 0.075-0.067 0.147-0.137 0.219-0.207 0.921-0.924 1.572-2.090 1.88-3.366l2.751-10.585h-0.028zM37.279 9.18c-0.184 0.724-0.56 1.384-1.087 1.907-0.072 0.070-0.147 0.14-0.226 0.207l-0.132 0.105c-0.613 0.473-1.35 0.755-2.118 0.811h-2.366l1.313-4.87c0.18-0.722 0.549-1.381 1.069-1.907 0.072-0.070 0.147-0.14 0.226-0.207l0.15-0.124c0.613-0.473 1.35-0.755 2.118-0.811h2.369l-1.316 4.889z"></path>
<path d="M44.12 10.658c-0.457 1.963-1.616 3.685-3.253 4.832v4.816c-0.007 0.189 0.025 0.378 0.093 0.554s0.171 0.336 0.303 0.47 0.289 0.239 0.463 0.308c0.174 0.069 0.359 0.102 0.546 0.095h2.82c0.185 0.003 0.369-0.031 0.541-0.1s0.329-0.172 0.462-0.303c0.134-0.126 0.241-0.28 0.313-0.451s0.107-0.355 0.104-0.541v-18.875l-2.391 9.196z"></path>
</symbol>
<symbol id="icon-menu" viewBox="0 0 32 32">
<path fill="#84c551" style="fill: var(--color1, #84c551)" d="M29.188 3.813h-18.875c-1.551 0-2.813 1.262-2.813 2.813s1.261 2.813 2.813 2.813h18.875c1.551 0 2.812-1.261 2.812-2.813s-1.262-2.813-2.812-2.813z"></path>
<path fill="#84c551" style="fill: var(--color1, #84c551)" d="M29.188 13.188h-18.875c-1.551 0-2.813 1.262-2.813 2.812s1.261 2.812 2.813 2.812h18.875c1.551 0 2.812-1.261 2.812-2.812s-1.262-2.812-2.812-2.812z"></path>
<path fill="#84c551" style="fill: var(--color1, #84c551)" d="M29.188 22.563h-18.875c-1.551 0-2.813 1.262-2.813 2.812s1.261 2.813 2.813 2.813h18.875c1.551 0 2.812-1.261 2.812-2.813s-1.262-2.812-2.812-2.812z"></path>
<path fill="#84c551" style="fill: var(--color1, #84c551)" d="M2.813 3.813c-1.551 0-2.813 1.262-2.813 2.813s1.261 2.813 2.813 2.813c1.551 0 2.813-1.261 2.813-2.813s-1.262-2.813-2.813-2.813z"></path>
<path fill="#84c551" style="fill: var(--color1, #84c551)" d="M2.813 13.188c-1.551 0-2.813 1.262-2.813 2.812s1.261 2.812 2.813 2.812c1.551 0 2.813-1.261 2.813-2.812s-1.262-2.812-2.813-2.812z"></path>
<path fill="#84c551" style="fill: var(--color1, #84c551)" d="M2.813 22.563c-1.551 0-2.813 1.262-2.813 2.812s1.261 2.813 2.813 2.813c1.551 0 2.813-1.261 2.813-2.813s-1.262-2.812-2.813-2.812z"></path>
</symbol>
<symbol id="icon-menu-close" viewBox="0 0 32 32">
<path d="M16 14.115l6.6-6.6 1.885 1.885-6.6 6.6 6.6 6.6-1.885 1.885-6.6-6.6-6.6 6.6-1.885-1.885 6.6-6.6-6.6-6.6 1.885-1.885z"></path>
</symbol>
<symbol id="icon-log-out" viewBox="0 0 32 32">
<path fill="#84be51" style="fill: var(--color2, #84be51)" d="M5.333 21.333v2.667c0 2.947 2.388 5.333 5.333 5.333h13.333c2.947 0 5.333-2.387 5.333-5.333 0-4.439 0-11.56 0-16 0-2.945-2.387-5.333-5.333-5.333-3.812 0-9.52 0-13.333 0-2.945 0-5.333 2.388-5.333 5.333v2.667c0 0.736 0.597 1.333 1.333 1.333s1.333-0.597 1.333-1.333c0 0 0-1.249 0-2.667 0-1.472 1.195-2.667 2.667-2.667h13.333c1.473 0 2.667 1.195 2.667 2.667v16c0 1.473-1.193 2.667-2.667 2.667-3.812 0-9.52 0-13.333 0-1.472 0-2.667-1.193-2.667-2.667 0-1.416 0-2.667 0-2.667 0-0.735-0.597-1.333-1.333-1.333s-1.333 0.599-1.333 1.333zM15.448 14.667l-1.724-1.723c-0.52-0.521-0.52-1.365 0-1.887 0.521-0.52 1.365-0.52 1.885 0l4 4c0.521 0.521 0.521 1.365 0 1.887l-4 4c-0.52 0.52-1.364 0.52-1.885 0-0.52-0.521-0.52-1.365 0-1.887l1.724-1.724h-11.448c-0.736 0-1.333-0.597-1.333-1.333 0-0.735 0.597-1.333 1.333-1.333h11.448z"></path>
</symbol>
<symbol id="icon-title" viewBox="0 0 41 32">
<path fill="#84c551" style="fill: var(--color1, #84c551)" d="M40.673 0.009c-0.14-0.012-0.28-0.012-0.42 0h-17.189c-6.082 0.222-10.654 1.74-13.716 4.553-0.146 0.13-0.286 0.259-0.42 0.401-1.76 1.791-3.002 4.038-3.589 6.496l-5.34 20.542h17.639c6.054-0.222 10.612-1.727 13.673-4.515 0.146-0.13 0.286-0.265 0.426-0.401 1.788-1.794 3.051-4.055 3.649-6.533l5.34-20.542h-0.055zM24.822 17.793c-0.358 1.406-1.088 2.686-2.111 3.701-0.14 0.136-0.286 0.271-0.438 0.401l-0.256 0.204c-1.19 0.919-2.619 1.466-4.112 1.573h-4.592l2.549-9.45c0.35-1.401 1.067-2.68 2.074-3.701 0.14-0.136 0.286-0.271 0.438-0.401l0.292-0.241c1.19-0.919 2.619-1.466 4.112-1.573h4.598l-2.555 9.487z"></path>
</symbol>
<symbol id="icon-arrow-down" viewBox="0 0 32 32">
<path d="M16 25.12c-0.573 0-1.147-0.219-1.584-0.656l-13.759-13.759c-0.875-0.875-0.875-2.294 0-3.169s2.294-0.875 3.169 0l12.174 12.175 12.174-12.175c0.875-0.875 2.294-0.875 3.169 0s0.876 2.294 0 3.169l-13.759 13.759c-0.437 0.437-1.011 0.656-1.584 0.656z"></path>
</symbol>
<symbol id="icon-shopping-cart" viewBox="0 0 32 32">
<path d="M31.815 6.686c-0.183-0.263-0.478-0.425-0.798-0.438l-19.85-0.856c-0.57-0.025-1.045 0.415-1.070 0.982s0.415 1.045 0.982 1.070l18.506 0.798-3.639 11.353h-16.192l-2.925-15.929c-0.064-0.349-0.304-0.64-0.635-0.77l-4.791-1.882c-0.528-0.207-1.124 0.053-1.331 0.58s0.052 1.124 0.58 1.331l4.26 1.674 2.977 16.208c0.090 0.487 0.514 0.841 1.010 0.841h0.494l-1.128 3.132c-0.094 0.262-0.056 0.554 0.105 0.782s0.421 0.364 0.7 0.364h0.791c-0.49 0.546-0.791 1.264-0.791 2.054 0 1.698 1.382 3.080 3.080 3.080s3.080-1.382 3.080-3.080c0-0.79-0.301-1.508-0.791-2.054h6.716c-0.49 0.546-0.791 1.264-0.791 2.054 0 1.698 1.382 3.080 3.080 3.080s3.080-1.382 3.080-3.080c0-0.79-0.301-1.508-0.791-2.054h0.962c0.473 0 0.856-0.383 0.856-0.856s-0.383-0.856-0.856-0.856h-16.408l0.924-2.567h15.484c0.447 0 0.842-0.288 0.978-0.713l4.278-13.348c0.098-0.305 0.048-0.638-0.135-0.9zM12.15 29.347c-0.755 0-1.369-0.614-1.369-1.369s0.614-1.369 1.369-1.369c0.755 0 1.369 0.614 1.369 1.369s-0.614 1.369-1.369 1.369zM23.444 29.347c-0.755 0-1.369-0.614-1.369-1.369s0.614-1.369 1.369-1.369c0.755 0 1.369 0.614 1.369 1.369s-0.614 1.369-1.369 1.369z"></path>
</symbol>
<symbol id="icon-comparison" viewBox="0 0 32 32">
<path d="M31.866 19.535l-5.391-8.986 4.838-1.344c0.499-0.139 0.791-0.655 0.652-1.154s-0.655-0.791-1.154-0.652l-6.014 1.671c-0 0-0.001 0-0.001 0l-7.858 2.183v-10.314c0-0.518-0.42-0.938-0.938-0.938s-0.938 0.42-0.938 0.938v10.835l-8.34 2.317c-0 0-0.001 0-0.001 0l-6.034 1.676c-0.499 0.139-0.791 0.655-0.652 1.154 0.115 0.415 0.492 0.687 0.903 0.687 0.083 0 0.168-0.011 0.251-0.034l3.762-1.045-4.816 8.028c-0.087 0.146-0.134 0.312-0.134 0.482 0 3.839 3.123 6.962 6.962 6.962s6.962-3.123 6.962-6.962c0-0.17-0.046-0.337-0.134-0.482l-5.391-8.986 14.625-4.062-4.816 8.028c-0.087 0.146-0.134 0.312-0.134 0.482 0 3.839 3.123 6.962 6.962 6.962 1.86 0 3.608-0.724 4.923-2.039s2.039-3.063 2.039-4.923c0-0.17-0.046-0.337-0.133-0.482zM6.963 30.125c-2.485 0-4.558-1.791-5-4.15h10c-0.441 2.359-2.515 4.15-5 4.15zM11.332 24.1h-8.738l4.369-7.283 4.369 7.283zM25.037 11.797l4.369 7.282h-8.738l4.369-7.282zM25.037 25.104c-2.485 0-4.558-1.791-5-4.15h10c-0.441 2.359-2.515 4.15-5 4.15z"></path>
</symbol>
<symbol id="icon-arrow" viewBox="0 0 36 32">
<path fill="#84be51" style="fill: var(--color1, #84be51)" d="M33.419 13.504c-0.146-0.024-0.293-0.034-0.44-0.033h-25.084l0.547-0.254c0.535-0.253 1.021-0.597 1.437-1.018l7.034-7.034c0.926-0.884 1.082-2.307 0.369-3.371-0.83-1.134-2.422-1.38-3.556-0.55-0.092 0.067-0.179 0.14-0.26 0.219l-12.72 12.72c-0.994 0.993-0.995 2.604-0.002 3.598 0.001 0.001 0.001 0.001 0.002 0.002l12.72 12.72c0.995 0.992 2.606 0.99 3.598-0.005 0.078-0.078 0.151-0.162 0.218-0.249 0.713-1.064 0.557-2.486-0.369-3.371l-7.021-7.047c-0.373-0.373-0.802-0.687-1.272-0.929l-0.763-0.343h24.982c1.3 0.048 2.44-0.859 2.684-2.137 0.225-1.387-0.717-2.693-2.104-2.918z"></path>
</symbol>
<symbol id="icon-email" viewBox="0 0 32 32">
<path fill="#8d3200" style="fill: var(--color1, #8d3200); stroke: var(--color2, #fff)" stroke="#fff" stroke-linejoin="miter" stroke-linecap="butt" stroke-miterlimit="4" stroke-width="0.4" d="M0 4.75v22.5h32v-22.5h-32zM28.792 6.625l-12.792 12.739-12.792-12.739h25.585zM1.875 25.375v-17.431l14.125 14.066 14.125-14.066v17.431h-28.25z"></path>
</symbol>
<symbol id="icon-call" viewBox="0 0 32 32">
<path d="M24.396 29.091l-4.387-7.738c-0.034-0.050-0.056-0.106-0.067-0.165s-0.009-0.12 0.004-0.178c0.014-0.058 0.039-0.113 0.075-0.161s0.081-0.088 0.134-0.118c0.052-0.030 0.11-0.048 0.17-0.055s0.12-0 0.177 0.018 0.11 0.048 0.155 0.087c0.045 0.039 0.082 0.088 0.108 0.142l4.387 7.738-0.756 0.431z"></path>
<path d="M14.336 10.909c-0.077-0.001-0.152-0.022-0.218-0.060s-0.121-0.094-0.16-0.161l-4.387-7.732 0.756-0.436 4.387 7.738c0.055 0.099 0.068 0.215 0.038 0.324s-0.103 0.201-0.201 0.258c-0.065 0.040-0.139 0.064-0.215 0.070z"></path>
<path d="M20.107 30.394c-0.644 0.011-1.287-0.059-1.914-0.209-6.255-1.728-14.47-16.221-12.742-22.47 0.787-2.214 2.295-4.099 4.282-5.353 0.384-0.227 0.774-0.431 1.164-0.617 0.358-0.163 0.764-0.186 1.137-0.064s0.688 0.379 0.882 0.721l3.287 5.818c0.109 0.191 0.177 0.402 0.199 0.621s-0.002 0.439-0.071 0.648c-0.070 0.209-0.183 0.401-0.331 0.564s-0.329 0.294-0.53 0.384c-0.32 0.14-0.634 0.285-0.937 0.442-1.321 0.663-2.077 1.263-2.252 1.786-0.401 1.245 0.076 3.351 1.216 5.364s2.676 3.491 3.962 3.764c0.378 0.087 1.164 0 2.688-1.007 0.291-0.18 0.582-0.378 0.867-0.582 0.179-0.127 0.383-0.215 0.598-0.258s0.437-0.041 0.652 0.007c0.214 0.048 0.416 0.14 0.593 0.27s0.324 0.297 0.432 0.488l3.293 5.818c0.197 0.342 0.257 0.746 0.17 1.131s-0.316 0.723-0.641 0.946c-0.355 0.233-0.733 0.465-1.129 0.681-1.512 0.757-3.185 1.136-4.876 1.105zM11.543 2.467c-0.097 0.002-0.192 0.024-0.279 0.064-0.361 0.169-0.727 0.367-1.088 0.582-1.791 1.139-3.157 2.836-3.887 4.829-0.733 2.659 0.553 7.482 3.276 12.282s6.202 8.384 8.861 9.123c2.083 0.4 4.239 0.105 6.138-0.838 0.372-0.204 0.727-0.419 1.059-0.64 0.142-0.1 0.242-0.25 0.28-0.42s0.010-0.348-0.076-0.499l-3.293-5.818c-0.048-0.084-0.113-0.158-0.191-0.216s-0.167-0.099-0.262-0.121c-0.1-0.023-0.203-0.024-0.303-0.004s-0.195 0.061-0.278 0.121c-0.297 0.209-0.582 0.413-0.896 0.582-1.478 0.954-2.543 1.309-3.351 1.129-1.542-0.349-3.235-1.914-4.527-4.189-1.007-1.745-1.868-4.282-1.286-6.063 0.25-0.774 1.105-1.507 2.682-2.327 0.314-0.163 0.646-0.314 0.977-0.46 0.091-0.040 0.172-0.099 0.239-0.172s0.118-0.159 0.151-0.253c0.032-0.096 0.044-0.197 0.034-0.297s-0.041-0.197-0.092-0.285l-3.293-5.818c-0.068-0.092-0.158-0.167-0.261-0.216s-0.217-0.073-0.332-0.069v-0.006z"></path>
</symbol>
<symbol id="icon-arrow-up" viewBox="0 0 32 32">
<path fill="#fff" style="fill: var(--color1, #fff)" d="M13.754 30.077c-0.021-0.131-0.031-0.264-0.029-0.396v-22.575l-0.229 0.492c-0.228 0.481-0.538 0.919-0.916 1.294l-6.331 6.331c-0.796 0.834-2.076 0.974-3.034 0.332-1.020-0.747-1.242-2.18-0.495-3.2 0.060-0.082 0.126-0.161 0.197-0.234l11.448-11.448c0.894-0.895 2.343-0.895 3.238-0.002 0 0.001 0.001 0.001 0.002 0.002l11.448 11.448c0.893 0.895 0.891 2.345-0.004 3.238-0.070 0.070-0.145 0.136-0.224 0.196-0.957 0.642-2.238 0.502-3.034-0.332l-6.342-6.319c-0.336-0.336-0.618-0.722-0.836-1.145l-0.309-0.687v22.484c0.044 1.17-0.773 2.196-1.923 2.416-1.248 0.202-2.424-0.645-2.627-1.893z"></path>
</symbol>
<symbol id="icon-zoom" viewBox="0 0 32 32">
<path fill="#84be51" style="fill: var(--color1, #84be51)" d="M31.609 29.724l-9.1-9.1c1.763-2.177 2.824-4.944 2.824-7.957 0-6.984-5.683-12.667-12.667-12.667s-12.666 5.683-12.666 12.666c0 6.984 5.683 12.667 12.667 12.667 3.013 0 5.78-1.061 7.957-2.824l9.1 9.1c0.26 0.26 0.601 0.391 0.943 0.391s0.683-0.131 0.943-0.391c0.521-0.521 0.521-1.364-0-1.885zM12.667 22.667c-5.515 0-10-4.485-10-10s4.485-10 10-10c5.515 0 10 4.485 10 10s-4.485 10-10 10z"></path>
</symbol>
</defs>
</svg>
