<svg aria-hidden="true" style="position: absolute; width: 0; height: 0; overflow: hidden;" version="1.1" xmlns="http://www.w3.org/2000/svg" xmlns:xlink="http://www.w3.org/1999/xlink">
<defs>
<symbol id="icon-menu" viewBox="0 0 32 32">
<path fill="#84c551" style="fill: var(--color1, #84c551)" d="M29.188 3.813h-18.875c-1.551 0-2.813 1.262-2.813 2.813s1.261 2.813 2.813 2.813h18.875c1.551 0 2.812-1.261 2.812-2.813s-1.262-2.813-2.812-2.813z"></path>
<path fill="#84c551" style="fill: var(--color1, #84c551)" d="M29.188 13.188h-18.875c-1.551 0-2.813 1.262-2.813 2.812s1.261 2.812 2.813 2.812h18.875c1.551 0 2.812-1.261 2.812-2.812s-1.262-2.812-2.812-2.812z"></path>
<path fill="#84c551" style="fill: var(--color1, #84c551)" d="M29.188 22.563h-18.875c-1.551 0-2.813 1.262-2.813 2.812s1.261 2.813 2.813 2.813h18.875c1.551 0 2.812-1.261 2.812-2.813s-1.262-2.812-2.812-2.812z"></path>
<path fill="#84c551" style="fill: var(--color1, #84c551)" d="M2.813 3.813c-1.551 0-2.813 1.262-2.813 2.813s1.261 2.813 2.813 2.813c1.551 0 2.813-1.261 2.813-2.813s-1.262-2.813-2.813-2.813z"></path>
<path fill="#84c551" style="fill: var(--color1, #84c551)" d="M2.813 13.188c-1.551 0-2.813 1.262-2.813 2.812s1.261 2.812 2.813 2.812c1.551 0 2.813-1.261 2.813-2.812s-1.262-2.812-2.813-2.812z"></path>
<path fill="#84c551" style="fill: var(--color1, #84c551)" d="M2.813 22.563c-1.551 0-2.813 1.262-2.813 2.812s1.261 2.813 2.813 2.813c1.551 0 2.813-1.261 2.813-2.813s-1.262-2.812-2.813-2.812z"></path>
</symbol>
<symbol id="icon-log-out" viewBox="0 0 32 32">
<path fill="#84be51" style="fill: var(--color2, #84be51)" d="M5.333 21.333v2.667c0 2.947 2.388 5.333 5.333 5.333h13.333c2.947 0 5.333-2.387 5.333-5.333 0-4.439 0-11.56 0-16 0-2.945-2.387-5.333-5.333-5.333-3.812 0-9.52 0-13.333 0-2.945 0-5.333 2.388-5.333 5.333v2.667c0 0.736 0.597 1.333 1.333 1.333s1.333-0.597 1.333-1.333c0 0 0-1.249 0-2.667 0-1.472 1.195-2.667 2.667-2.667h13.333c1.473 0 2.667 1.195 2.667 2.667v16c0 1.473-1.193 2.667-2.667 2.667-3.812 0-9.52 0-13.333 0-1.472 0-2.667-1.193-2.667-2.667 0-1.416 0-2.667 0-2.667 0-0.735-0.597-1.333-1.333-1.333s-1.333 0.599-1.333 1.333zM15.448 14.667l-1.724-1.723c-0.52-0.521-0.52-1.365 0-1.887 0.521-0.52 1.365-0.52 1.885 0l4 4c0.521 0.521 0.521 1.365 0 1.887l-4 4c-0.52 0.52-1.364 0.52-1.885 0-0.52-0.521-0.52-1.365 0-1.887l1.724-1.724h-11.448c-0.736 0-1.333-0.597-1.333-1.333 0-0.735 0.597-1.333 1.333-1.333h11.448z"></path>
</symbol>
<symbol id="icon-title" viewBox="0 0 41 32">
<path fill="#84c551" style="fill: var(--color1, #84c551)" d="M40.673 0.009c-0.14-0.012-0.28-0.012-0.42 0h-17.189c-6.082 0.222-10.654 1.74-13.716 4.553-0.146 0.13-0.286 0.259-0.42 0.401-1.76 1.791-3.002 4.038-3.589 6.496l-5.34 20.542h17.639c6.054-0.222 10.612-1.727 13.673-4.515 0.146-0.13 0.286-0.265 0.426-0.401 1.788-1.794 3.051-4.055 3.649-6.533l5.34-20.542h-0.055zM24.822 17.793c-0.358 1.406-1.088 2.686-2.111 3.701-0.14 0.136-0.286 0.271-0.438 0.401l-0.256 0.204c-1.19 0.919-2.619 1.466-4.112 1.573h-4.592l2.549-9.45c0.35-1.401 1.067-2.68 2.074-3.701 0.14-0.136 0.286-0.271 0.438-0.401l0.292-0.241c1.19-0.919 2.619-1.466 4.112-1.573h4.598l-2.555 9.487z"></path>
</symbol>
</defs>
</svg>
