<svg aria-hidden="true" style="position: absolute; width: 0; height: 0; overflow: hidden;" version="1.1" xmlns="http://www.w3.org/2000/svg" xmlns:xlink="http://www.w3.org/1999/xlink">
<defs>
<symbol id="icon-menu" viewBox="0 0 32 32">
<path fill="#84c551" style="fill: var(--color1, #84c551)" d="M29.188 3.813h-18.875c-1.551 0-2.813 1.262-2.813 2.813s1.261 2.813 2.813 2.813h18.875c1.551 0 2.812-1.261 2.812-2.813s-1.262-2.813-2.812-2.813z"></path>
<path fill="#84c551" style="fill: var(--color1, #84c551)" d="M29.188 13.188h-18.875c-1.551 0-2.813 1.262-2.813 2.812s1.261 2.812 2.813 2.812h18.875c1.551 0 2.812-1.261 2.812-2.812s-1.262-2.812-2.812-2.812z"></path>
<path fill="#84c551" style="fill: var(--color1, #84c551)" d="M29.188 22.563h-18.875c-1.551 0-2.813 1.262-2.813 2.812s1.261 2.813 2.813 2.813h18.875c1.551 0 2.812-1.261 2.812-2.813s-1.262-2.812-2.812-2.812z"></path>
<path fill="#84c551" style="fill: var(--color1, #84c551)" d="M2.813 3.813c-1.551 0-2.813 1.262-2.813 2.813s1.261 2.813 2.813 2.813c1.551 0 2.813-1.261 2.813-2.813s-1.262-2.813-2.813-2.813z"></path>
<path fill="#84c551" style="fill: var(--color1, #84c551)" d="M2.813 13.188c-1.551 0-2.813 1.262-2.813 2.812s1.261 2.812 2.813 2.812c1.551 0 2.813-1.261 2.813-2.812s-1.262-2.812-2.813-2.812z"></path>
<path fill="#84c551" style="fill: var(--color1, #84c551)" d="M2.813 22.563c-1.551 0-2.813 1.262-2.813 2.812s1.261 2.813 2.813 2.813c1.551 0 2.813-1.261 2.813-2.813s-1.262-2.812-2.813-2.812z"></path>
</symbol>
<symbol id="icon-menu-close" viewBox="0 0 32 32">
<path d="M16 14.115l6.6-6.6 1.885 1.885-6.6 6.6 6.6 6.6-1.885 1.885-6.6-6.6-6.6 6.6-1.885-1.885 6.6-6.6-6.6-6.6 1.885-1.885z"></path>
</symbol>
<symbol id="icon-log-out" viewBox="0 0 32 32">
<path fill="#84be51" style="fill: var(--color2, #84be51)" d="M5.333 21.333v2.667c0 2.947 2.388 5.333 5.333 5.333h13.333c2.947 0 5.333-2.387 5.333-5.333 0-4.439 0-11.56 0-16 0-2.945-2.387-5.333-5.333-5.333-3.812 0-9.52 0-13.333 0-2.945 0-5.333 2.388-5.333 5.333v2.667c0 0.736 0.597 1.333 1.333 1.333s1.333-0.597 1.333-1.333c0 0 0-1.249 0-2.667 0-1.472 1.195-2.667 2.667-2.667h13.333c1.473 0 2.667 1.195 2.667 2.667v16c0 1.473-1.193 2.667-2.667 2.667-3.812 0-9.52 0-13.333 0-1.472 0-2.667-1.193-2.667-2.667 0-1.416 0-2.667 0-2.667 0-0.735-0.597-1.333-1.333-1.333s-1.333 0.599-1.333 1.333zM15.448 14.667l-1.724-1.723c-0.52-0.521-0.52-1.365 0-1.887 0.521-0.52 1.365-0.52 1.885 0l4 4c0.521 0.521 0.521 1.365 0 1.887l-4 4c-0.52 0.52-1.364 0.52-1.885 0-0.52-0.521-0.52-1.365 0-1.887l1.724-1.724h-11.448c-0.736 0-1.333-0.597-1.333-1.333 0-0.735 0.597-1.333 1.333-1.333h11.448z"></path>
</symbol>
<symbol id="icon-title" viewBox="0 0 41 32">
<path fill="#84c551" style="fill: var(--color1, #84c551)" d="M40.673 0.009c-0.14-0.012-0.28-0.012-0.42 0h-17.189c-6.082 0.222-10.654 1.74-13.716 4.553-0.146 0.13-0.286 0.259-0.42 0.401-1.76 1.791-3.002 4.038-3.589 6.496l-5.34 20.542h17.639c6.054-0.222 10.612-1.727 13.673-4.515 0.146-0.13 0.286-0.265 0.426-0.401 1.788-1.794 3.051-4.055 3.649-6.533l5.34-20.542h-0.055zM24.822 17.793c-0.358 1.406-1.088 2.686-2.111 3.701-0.14 0.136-0.286 0.271-0.438 0.401l-0.256 0.204c-1.19 0.919-2.619 1.466-4.112 1.573h-4.592l2.549-9.45c0.35-1.401 1.067-2.68 2.074-3.701 0.14-0.136 0.286-0.271 0.438-0.401l0.292-0.241c1.19-0.919 2.619-1.466 4.112-1.573h4.598l-2.555 9.487z"></path>
</symbol>
<symbol id="icon-arrow-down" viewBox="0 0 32 32">
<path d="M16 25.12c-0.573 0-1.147-0.219-1.584-0.656l-13.759-13.759c-0.875-0.875-0.875-2.294 0-3.169s2.294-0.875 3.169 0l12.174 12.175 12.174-12.175c0.875-0.875 2.294-0.875 3.169 0s0.876 2.294 0 3.169l-13.759 13.759c-0.437 0.437-1.011 0.656-1.584 0.656z"></path>
</symbol>
<symbol id="icon-shopping-cart" viewBox="0 0 32 32">
<path d="M31.815 6.686c-0.183-0.263-0.478-0.425-0.798-0.438l-19.85-0.856c-0.57-0.025-1.045 0.415-1.070 0.982s0.415 1.045 0.982 1.070l18.506 0.798-3.639 11.353h-16.192l-2.925-15.929c-0.064-0.349-0.304-0.64-0.635-0.77l-4.791-1.882c-0.528-0.207-1.124 0.053-1.331 0.58s0.052 1.124 0.58 1.331l4.26 1.674 2.977 16.208c0.090 0.487 0.514 0.841 1.010 0.841h0.494l-1.128 3.132c-0.094 0.262-0.056 0.554 0.105 0.782s0.421 0.364 0.7 0.364h0.791c-0.49 0.546-0.791 1.264-0.791 2.054 0 1.698 1.382 3.080 3.080 3.080s3.080-1.382 3.080-3.080c0-0.79-0.301-1.508-0.791-2.054h6.716c-0.49 0.546-0.791 1.264-0.791 2.054 0 1.698 1.382 3.080 3.080 3.080s3.080-1.382 3.080-3.080c0-0.79-0.301-1.508-0.791-2.054h0.962c0.473 0 0.856-0.383 0.856-0.856s-0.383-0.856-0.856-0.856h-16.408l0.924-2.567h15.484c0.447 0 0.842-0.288 0.978-0.713l4.278-13.348c0.098-0.305 0.048-0.638-0.135-0.9zM12.15 29.347c-0.755 0-1.369-0.614-1.369-1.369s0.614-1.369 1.369-1.369c0.755 0 1.369 0.614 1.369 1.369s-0.614 1.369-1.369 1.369zM23.444 29.347c-0.755 0-1.369-0.614-1.369-1.369s0.614-1.369 1.369-1.369c0.755 0 1.369 0.614 1.369 1.369s-0.614 1.369-1.369 1.369z"></path>
</symbol>
<symbol id="icon-comparison" viewBox="0 0 32 32">
<path fill="#8c3213" style="fill: var(--color1, #8c3213)" d="M31.866 19.535l-5.391-8.986 4.838-1.344c0.499-0.139 0.791-0.655 0.652-1.154s-0.655-0.791-1.154-0.652l-6.014 1.671c-0 0-0.001 0-0.001 0l-7.858 2.183v-10.314c0-0.518-0.42-0.938-0.938-0.938s-0.938 0.42-0.938 0.938v10.835l-8.34 2.317c-0 0-0.001 0-0.001 0l-6.034 1.676c-0.499 0.139-0.791 0.655-0.652 1.154 0.115 0.415 0.492 0.687 0.903 0.687 0.083 0 0.168-0.011 0.251-0.034l3.762-1.045-4.816 8.028c-0.087 0.146-0.134 0.312-0.134 0.482 0 3.839 3.123 6.962 6.962 6.962s6.962-3.123 6.962-6.962c0-0.17-0.046-0.337-0.134-0.482l-5.391-8.986 14.625-4.062-4.816 8.028c-0.087 0.146-0.134 0.312-0.134 0.482 0 3.839 3.123 6.962 6.962 6.962 1.86 0 3.608-0.724 4.923-2.039s2.039-3.063 2.039-4.923c0-0.17-0.046-0.337-0.133-0.482zM6.963 30.125c-2.485 0-4.558-1.791-5-4.15h10c-0.441 2.359-2.515 4.15-5 4.15zM11.332 24.1h-8.738l4.369-7.283 4.369 7.283zM25.037 11.797l4.369 7.282h-8.738l4.369-7.282zM25.037 25.104c-2.485 0-4.558-1.791-5-4.15h10c-0.441 2.359-2.515 4.15-5 4.15z"></path>
</symbol>
<symbol id="icon-arrow" viewBox="0 0 36 32">
<path fill="#84be51" style="fill: var(--color1, #84be51)" d="M33.419 13.504c-0.146-0.024-0.293-0.034-0.44-0.033h-25.084l0.547-0.254c0.535-0.253 1.021-0.597 1.437-1.018l7.034-7.034c0.926-0.884 1.082-2.307 0.369-3.371-0.83-1.134-2.422-1.38-3.556-0.55-0.092 0.067-0.179 0.14-0.26 0.219l-12.72 12.72c-0.994 0.993-0.995 2.604-0.002 3.598 0.001 0.001 0.001 0.001 0.002 0.002l12.72 12.72c0.995 0.992 2.606 0.99 3.598-0.005 0.078-0.078 0.151-0.162 0.218-0.249 0.713-1.064 0.557-2.486-0.369-3.371l-7.021-7.047c-0.373-0.373-0.802-0.687-1.272-0.929l-0.763-0.343h24.982c1.3 0.048 2.44-0.859 2.684-2.137 0.225-1.387-0.717-2.693-2.104-2.918z"></path>
</symbol>
<symbol id="icon-email" viewBox="0 0 32 32">
<path fill="#8d3200" style="fill: var(--color1, #8d3200); stroke: var(--color2, #fff)" stroke="#fff" stroke-linejoin="miter" stroke-linecap="butt" stroke-miterlimit="4" stroke-width="0.4" d="M0 4.75v22.5h32v-22.5h-32zM28.792 6.625l-12.792 12.739-12.792-12.739h25.585zM1.875 25.375v-17.431l14.125 14.066 14.125-14.066v17.431h-28.25z"></path>
</symbol>
<symbol id="icon-call" viewBox="0 0 32 32">
<path d="M24.396 29.091l-4.387-7.738c-0.034-0.050-0.056-0.106-0.067-0.165s-0.009-0.12 0.004-0.178c0.014-0.058 0.039-0.113 0.075-0.161s0.081-0.088 0.134-0.118c0.052-0.030 0.11-0.048 0.17-0.055s0.12-0 0.177 0.018 0.11 0.048 0.155 0.087c0.045 0.039 0.082 0.088 0.108 0.142l4.387 7.738-0.756 0.431z"></path>
<path d="M14.336 10.909c-0.077-0.001-0.152-0.022-0.218-0.060s-0.121-0.094-0.16-0.161l-4.387-7.732 0.756-0.436 4.387 7.738c0.055 0.099 0.068 0.215 0.038 0.324s-0.103 0.201-0.201 0.258c-0.065 0.040-0.139 0.064-0.215 0.070z"></path>
<path d="M20.107 30.394c-0.644 0.011-1.287-0.059-1.914-0.209-6.255-1.728-14.47-16.221-12.742-22.47 0.787-2.214 2.295-4.099 4.282-5.353 0.384-0.227 0.774-0.431 1.164-0.617 0.358-0.163 0.764-0.186 1.137-0.064s0.688 0.379 0.882 0.721l3.287 5.818c0.109 0.191 0.177 0.402 0.199 0.621s-0.002 0.439-0.071 0.648c-0.070 0.209-0.183 0.401-0.331 0.564s-0.329 0.294-0.53 0.384c-0.32 0.14-0.634 0.285-0.937 0.442-1.321 0.663-2.077 1.263-2.252 1.786-0.401 1.245 0.076 3.351 1.216 5.364s2.676 3.491 3.962 3.764c0.378 0.087 1.164 0 2.688-1.007 0.291-0.18 0.582-0.378 0.867-0.582 0.179-0.127 0.383-0.215 0.598-0.258s0.437-0.041 0.652 0.007c0.214 0.048 0.416 0.14 0.593 0.27s0.324 0.297 0.432 0.488l3.293 5.818c0.197 0.342 0.257 0.746 0.17 1.131s-0.316 0.723-0.641 0.946c-0.355 0.233-0.733 0.465-1.129 0.681-1.512 0.757-3.185 1.136-4.876 1.105zM11.543 2.467c-0.097 0.002-0.192 0.024-0.279 0.064-0.361 0.169-0.727 0.367-1.088 0.582-1.791 1.139-3.157 2.836-3.887 4.829-0.733 2.659 0.553 7.482 3.276 12.282s6.202 8.384 8.861 9.123c2.083 0.4 4.239 0.105 6.138-0.838 0.372-0.204 0.727-0.419 1.059-0.64 0.142-0.1 0.242-0.25 0.28-0.42s0.010-0.348-0.076-0.499l-3.293-5.818c-0.048-0.084-0.113-0.158-0.191-0.216s-0.167-0.099-0.262-0.121c-0.1-0.023-0.203-0.024-0.303-0.004s-0.195 0.061-0.278 0.121c-0.297 0.209-0.582 0.413-0.896 0.582-1.478 0.954-2.543 1.309-3.351 1.129-1.542-0.349-3.235-1.914-4.527-4.189-1.007-1.745-1.868-4.282-1.286-6.063 0.25-0.774 1.105-1.507 2.682-2.327 0.314-0.163 0.646-0.314 0.977-0.46 0.091-0.040 0.172-0.099 0.239-0.172s0.118-0.159 0.151-0.253c0.032-0.096 0.044-0.197 0.034-0.297s-0.041-0.197-0.092-0.285l-3.293-5.818c-0.068-0.092-0.158-0.167-0.261-0.216s-0.217-0.073-0.332-0.069v-0.006z"></path>
</symbol>
<symbol id="icon-arrow-up" viewBox="0 0 32 32">
<path fill="#fff" style="fill: var(--color1, #fff)" d="M13.754 30.077c-0.021-0.131-0.031-0.264-0.029-0.396v-22.575l-0.229 0.492c-0.228 0.481-0.538 0.919-0.916 1.294l-6.331 6.331c-0.796 0.834-2.076 0.974-3.034 0.332-1.020-0.747-1.242-2.18-0.495-3.2 0.060-0.082 0.126-0.161 0.197-0.234l11.448-11.448c0.894-0.895 2.343-0.895 3.238-0.002 0 0.001 0.001 0.001 0.002 0.002l11.448 11.448c0.893 0.895 0.891 2.345-0.004 3.238-0.070 0.070-0.145 0.136-0.224 0.196-0.957 0.642-2.238 0.502-3.034-0.332l-6.342-6.319c-0.336-0.336-0.618-0.722-0.836-1.145l-0.309-0.687v22.484c0.044 1.17-0.773 2.196-1.923 2.416-1.248 0.202-2.424-0.645-2.627-1.893z"></path>
</symbol>
</defs>
</svg>
